<svg aria-hidden="true" role="img" viewBox="0 0 100 100" fill="#70757D"><svg xmlns="http://www.w3.org/2000/svg" viewBox="0 0 32 32" xml:space="preserve"><path d="M30 9.43a.92.92 0 0 1-.36-.07L16 4.07 2.36 9.36a1 1 0 0 1-1.29-.57.99.99 0 0 1 .57-1.29l13.64-5.29c.46-.18.98-.18 1.45 0L30.36 7.5A1 1 0 0 1 30 9.43z"></path><path d="M16 30a.98.98 0 0 1-.41-.09l-6.24-2.77a1 1 0 0 1-.51-1.32 1 1 0 0 1 1.32-.51l5.84 2.6 13-5.77V9.92L16.38 15.1a1 1 0 0 1-.76 0L3 9.92v12.22l2.93 1.3a1 1 0 0 1 .51 1.32 1 1 0 0 1-1.32.51L1.59 23.7a1 1 0 0 1-.59-.91V8.43a1 1 0 0 1 .44-.83c.28-.19.63-.22.94-.1L16 13.09 29.62 7.5c.31-.13.66-.09.94.09.27.19.44.5.44.84v14.36c0 .4-.23.75-.59.91l-14 6.21A.98.98 0 0 1 16 30z"></path><path d="M16 29.53a1 1 0 0 1-1-1V14.17c0-.55.45-1 1-1s1 .45 1 1v14.36a1 1 0 0 1-1 1z"></path><path d="M23.54 19.48a1 1 0 0 1-1-1v-6.49L8.83 6.85a1 1 0 0 1 .7-1.88l14.36 5.38a1 1 0 0 1 .65.94v7.18a1 1 0 0 1-1 1.01z"></path></svg></svg>