<svg aria-hidden="true" role="img" viewBox="0 0 100 100" fill="#70757D"><svg xmlns="http://www.w3.org/2000/svg" viewBox="0 0 32 32" xml:space="preserve"><path d="M13.54 14.45h5.12a.98.98 0 0 0 0-1.95h-5.12a.98.98 0 0 0 0 1.95z"></path><path d="M24.36 8.59H7.84a.98.98 0 0 0-.97.98V22.1c0 .54.43.97.97.97h16.52c.54 0 .98-.43.98-.97V9.57a.98.98 0 0 0-.98-.98zm-.98 12.53H8.82V10.54h14.56v10.58z"></path><path d="m31.16 4.57-2.95-2.95A.98.98 0 1 0 26.83 3l1.28 1.28H11.94a.98.98 0 0 0 0 1.95H28.1l-1.28 1.29A.98.98 0 0 0 28.2 8.9l2.95-2.95a.98.98 0 0 0 0-1.38zM18.48 25.4H3.93l1.28-1.28a.98.98 0 1 0-1.38-1.38L.88 25.69a.98.98 0 0 0 0 1.38l2.95 2.95a.97.97 0 0 0 1.38 0c.39-.38.39-1 0-1.38l-1.28-1.29h14.55a.98.98 0 1 0 0-1.95z"></path></svg></svg>