<svg aria-hidden="true" role="img" viewBox="0 0 100 100" fill="#70757D"><svg xmlns="http://www.w3.org/2000/svg" viewBox="0 0 32 32" xml:space="preserve"><path d="M29.55 17.25h-.52l-2.56-5.2a.98.98 0 0 0-.88-.55h-4.05V4.77a.98.98 0 0 0-.97-.98H4.03a.98.98 0 0 0-.98.98v2.15a.98.98 0 0 0 1.95 0V5.75h14.6v11.48H5v-.5a.98.98 0 0 0-1.95 0v5.67a2.43 2.43 0 0 0 2.43 2.43h.8a3.53 3.53 0 0 0 7.04 0h8.93a3.53 3.53 0 0 0 7.05 0h.25c1.35 0 2.45-1.1 2.45-2.45V19.7c0-1.35-1.1-2.45-2.45-2.45zm-19.75 9a1.58 1.58 0 1 1 0-3.17 1.58 1.58 0 0 1 0 3.17zm15.97 0a1.58 1.58 0 1 1 0-3.17 1.58 1.58 0 0 1 0 3.17zm4.28-3.87a.5.5 0 0 1-.5.5h-.74a3.52 3.52 0 0 0-6.06 0h-9.92a3.53 3.53 0 0 0-3.03-1.75c-1.3 0-2.42.7-3.03 1.74h-1.3A.47.47 0 0 1 5 22.4v-3.21h15.58l.1.01c.54 0 .97-.44.97-.98v-4.76H25l2.55 5.2a1 1 0 0 0 .88.54h1.13c.27 0 .5.22.5.5v2.68z"></path><path d="M8.98 13.44a.98.98 0 0 0-.98-.97l-7.02.01a.98.98 0 0 0 0 1.96L8 14.42c.54 0 .98-.44.98-.98zM4 11.15h4a.98.98 0 0 0 0-1.96H4a.98.98 0 0 0 0 1.96z"></path></svg></svg>