<svg xmlns="http://www.w3.org/2000/svg" viewBox="0 0 32 32" xml:space="preserve"><path d="M16 .8C7.62.8.8 7.62.8 16c0 8.38 6.82 15.2 15.2 15.2 8.38 0 15.2-6.82 15.2-15.2C31.2 7.62 24.38.8 16 .8zm0 28.44C8.7 29.24 2.76 23.3 2.76 16S8.7 2.76 16 2.76 29.24 8.7 29.24 16 23.3 29.24 16 29.24zm3.47-21.17h-7.01c-2.46 0-4.47 2-4.47 4.46v7.01c0 2.46 2 4.47 4.47 4.47h7c2.47 0 4.47-2 4.47-4.47v-7c0-2.47-2-4.47-4.46-4.47zm2.94 11.47a2.95 2.95 0 0 1-2.94 2.95h-7.01a2.95 2.95 0 0 1-2.95-2.95v-7a2.95 2.95 0 0 1 2.95-2.95h7a2.95 2.95 0 0 1 2.95 2.94v7.01zm-6.45-7.61a4.11 4.11 0 1 0 .01 8.23 4.11 4.11 0 0 0 0-8.23zm0 6.7a2.6 2.6 0 1 1 0-5.19 2.6 2.6 0 0 1 0 5.2zm5.09-6.87a.92.92 0 1 1-1.85 0 .92.92 0 0 1 1.85 0z"></path></svg>