<svg xmlns="http://www.w3.org/2000/svg" viewBox="0 0 32 32" xml:space="preserve"><path d="M16 .83a15.18 15.18 0 0 0 0 30.34A15.18 15.18 0 0 0 16 .83zm0 28.39C8.71 29.22 2.78 23.29 2.78 16S8.71 2.78 16 2.78 29.22 8.71 29.22 16 23.29 29.22 16 29.22zm6.68-16.2c0 3.9-2.17 6.81-5.37 6.81-1.07 0-2.08-.58-2.43-1.24l-.7 2.73c-.43 1.57-1.7 3.13-1.8 3.26-.06.09-.21.06-.23-.06-.03-.2-.35-2.17.03-3.78.2-.8 1.28-5.42 1.28-5.42s-.32-.63-.32-1.57c0-1.47.86-2.57 1.92-2.57.9 0 1.34.67 1.34 1.49 0 .9-.58 2.27-.88 3.53-.25 1.05.53 1.91 1.57 1.91 1.89 0 3.16-2.42 3.16-5.28 0-2.18-1.47-3.82-4.14-3.82a4.71 4.71 0 0 0-4.9 4.77c0 .86.26 1.48.66 1.95.18.22.2.3.14.55l-.2.8c-.07.25-.27.34-.5.25-1.39-.57-2.04-2.09-2.04-3.8 0-2.82 2.39-6.21 7.11-6.21 3.8 0 6.3 2.74 6.3 5.7z"></path></svg>