<svg viewBox="0 0 32 32" xmlns="http://www.w3.org/2000/svg"><path fill-rule="evenodd" d="M21.85 22.25c.54 0 .98.43.98.97v4.67a2.95 2.95 0 0 1-2.95 2.96H7.16a2.93 2.93 0 0 1-2.93-2.93V4.09a2.95 2.95 0 0 1 2.94-2.94h12.7a2.96 2.96 0 0 1 2.96 2.95v.47a.98.98 0 1 1-1.96 0V4.1a1 1 0 0 0-1-1H7.18a1 1 0 0 0-.99 1v23.82c0 .53.44.97.98.97h12.72a1 1 0 0 0 1-1v-4.67c0-.53.43-.97.97-.97zm-7.34 3.59a.97.97 0 0 1-.98.98.97.97 0 0 1-.98-.98.98.98 0 1 1 1.96 0zM12.04 12.8c.54 0 .97.43.97.98a.98.98 0 0 1-.97.97.98.98 0 0 1-.98-.97c0-.55.43-.98.98-.98zm16.15-4.82v11.8c0 .53-.44.97-.98.97h-14.8a.98.98 0 0 1-.69-.27l-3.66-3.57a.98.98 0 0 1-.3-.7v-4.76c0-.27.11-.53.3-.71l3.68-3.47a.98.98 0 0 1 .67-.27h14.8c.54 0 .98.44.98.98zM12.8 18.8h13.43V8.96H12.8l-3.08 2.92v3.93l3.08 3z"></path></svg>