<svg xmlns="http://www.w3.org/2000/svg" viewBox="0 0 32 32" xml:space="preserve"><path d="M16 .8a15.21 15.21 0 0 0-.01 30.41A15.21 15.21 0 0 0 16 .8zm0 28.46A13.26 13.26 0 1 1 29.25 16c0 7.3-5.95 13.25-13.25 13.25zm6.38-17.51c.7-.08 1.36-.27 1.97-.54a6.95 6.95 0 0 1-1.7 1.78v.44c0 4.53-3.45 9.75-9.75 9.75a9.7 9.7 0 0 1-5.26-1.54 6.99 6.99 0 0 0 5.08-1.42 3.43 3.43 0 0 1-3.2-2.38 3.4 3.4 0 0 0 1.54-.06 3.43 3.43 0 0 1-2.75-3.36v-.04c.46.26 1 .41 1.55.43a3.43 3.43 0 0 1-1.06-4.58 9.73 9.73 0 0 0 7.07 3.58 3.43 3.43 0 0 1 5.84-3.13 6.86 6.86 0 0 0 2.18-.83c-.26.8-.8 1.48-1.5 1.9z"></path></svg>