<svg aria-hidden="true" role="img" viewBox="0 0 100 100" style="width:16px;height:16px;fill:currentColor;position:relative;margin-right:9px;top:min(0px, max(-8px, calc(100vw - 0px)))"><svg xmlns="http://www.w3.org/2000/svg" viewBox="0 0 32 32" xml:space="preserve"><path d="M31.75 7.39a1.2 1.2 0 0 0-.96-.48H6.75L6 4.11a1.2 1.2 0 0 0-1.17-.9H1.21a1.2 1.2 0 1 0 0 2.41h2.7l4.35 16.24c.14.52.62.9 1.16.9h17.35a1.2 1.2 0 0 0 0-2.42H10.35l-.76-2.82h18.97a1.2 1.2 0 0 0 1.16-.9l2.24-8.18c.1-.36.02-.75-.2-1.05M13.13 23.96a2.42 2.42 0 1 0 0 4.83 2.42 2.42 0 0 0 0-4.83m10.95 0a2.42 2.42 0 1 0 0 4.83 2.42 2.42 0 0 0 0-4.83"></path></svg></svg>