<svg xmlns="http://www.w3.org/2000/svg" viewBox="0 0 32 32" xml:space="preserve"><path d="M16 .71C7.57.71.71 7.57.71 16S7.57 31.29 16 31.29 31.29 24.43 31.29 16 24.43.71 16 .71zm0 28.62C8.65 29.33 2.67 23.35 2.67 16S8.65 2.67 16 2.67 29.33 8.65 29.33 16 23.35 29.33 16 29.33zm5.47-13.73H10.53a3.15 3.15 0 0 0-3.15 3.15v2.53c0 1.74 1.4 3.15 3.15 3.15h10.94a3.15 3.15 0 0 0 3.15-3.15v-2.53a3.15 3.15 0 0 0-3.15-3.15zm-8.64 1.97H11.8v5.06h-.98v-5.06H9.8v-.86h3.02v.86zm2.87 5.06h-.87v-.48a2 2 0 0 1-.5.4c-.18.1-.35.14-.51.14-.2 0-.35-.06-.46-.2-.1-.13-.15-.32-.15-.58v-3.65h.87v3.35c0 .1.02.18.06.22.03.05.1.07.18.07a.5.5 0 0 0 .24-.09c.1-.06.19-.14.27-.23v-3.32h.87v4.37zm3.17-.9c0 .3-.07.54-.2.7a.74.74 0 0 1-.6.25 1.03 1.03 0 0 1-.83-.39v.34h-.88V16.7h.88v1.9c.12-.13.24-.23.37-.3.14-.07.27-.1.4-.1.28 0 .5.1.64.28.14.18.22.46.22.81v2.43zm3.02-1.18h-1.67v.82c0 .23.03.4.09.48.06.09.15.13.3.13.14 0 .24-.03.3-.11.05-.08.08-.24.08-.5v-.2h.9v.23c0 .44-.1.78-.33 1-.21.23-.54.35-.98.35-.39 0-.7-.12-.92-.36a1.4 1.4 0 0 1-.34-1v-1.95c0-.38.13-.7.37-.93.25-.24.57-.36.96-.36.4 0 .7.11.92.33.21.23.32.54.32.96v1.1zm-.99-1.51c.06.08.1.2.1.39v.44h-.78v-.44c0-.18.03-.31.1-.4.05-.07.15-.11.3-.11.12 0 .22.04.28.12zm-3.02-.02c.06.07.09.18.09.33v2.26c0 .14-.03.23-.08.3-.05.06-.13.09-.23.09a.5.5 0 0 1-.21-.05.76.76 0 0 1-.21-.15v-2.72c.06-.06.12-.1.18-.14a.44.44 0 0 1 .18-.04c.12 0 .21.04.28.12zm-5.92-7.52-1.32-3.93h1.12l.72 2.6h.06l.69-2.6h1.12l-1.28 3.81v2.7h-1.1V11.5zm3.9 2.7c.44 0 .79-.11 1.04-.34.26-.24.38-.56.38-.97V10.4c0-.36-.13-.66-.38-.9-.27-.23-.6-.34-1-.34-.45 0-.8.1-1.07.33-.26.22-.4.51-.4.89v2.49c0 .4.13.73.39.97s.6.37 1.03.37zm-.42-3.86c0-.1.04-.19.11-.26a.5.5 0 0 1 .3-.1.5.5 0 0 1 .31.1c.08.07.12.15.12.26v2.62a.4.4 0 0 1-.12.3.44.44 0 0 1-.31.11c-.13 0-.23-.03-.3-.1a.42.42 0 0 1-.1-.31v-2.62zm2.81 3.6a1.04 1.04 0 0 1-.17-.64V9.28h.98v3.68c0 .12.02.2.06.25.04.05.11.08.2.08.08 0 .17-.04.28-.1.1-.07.2-.16.3-.26V9.28h.98v4.8h-.98v-.53c-.18.2-.37.35-.56.45-.2.1-.39.16-.57.16a.65.65 0 0 1-.52-.22z"></path></svg>