<?xml version="1.0" encoding="utf-8"?>
<!-- Generator: Adobe Illustrator 21.0.0, SVG Export Plug-In . SVG Version: 6.00 Build 0)  -->
<svg version="1.1" id="Layer_1" xmlns="http://www.w3.org/2000/svg" xmlns:xlink="http://www.w3.org/1999/xlink" x="0px" y="0px"
	 width="346px" height="114px" viewBox="0 0 346 113.5" style="enable-background:new 0 0 346 113.5;" xml:space="preserve">
<style type="text/css">
	.st0{clip-path:url(#SVGID_2_);enable-background:new    ;}
	.st1{clip-path:url(#SVGID_4_);}
	.st2{clip-path:url(#SVGID_6_);}
	.st3{clip-path:url(#SVGID_8_);fill:#010101;}
	.st4{clip-path:url(#SVGID_10_);}
	.st5{clip-path:url(#SVGID_12_);fill:#03A1D0;}
</style>
<g>
	<defs>
		<rect id="SVGID_1_" y="0.5" width="362" height="118.5"/>
	</defs>
	<clipPath id="SVGID_2_">
		<use xlink:href="#SVGID_1_"  style="overflow:visible;"/>
	</clipPath>
	<g class="st0">
		<g>
			<defs>
				<rect id="SVGID_3_" y="0.5" width="346" height="113"/>
			</defs>
			<clipPath id="SVGID_4_">
				<use xlink:href="#SVGID_3_"  style="overflow:visible;"/>
			</clipPath>
			<g class="st1">
				<defs>
					<path id="SVGID_5_" d="M315.1,91c-1.1,0-1.9-0.8-1.9-1.9V34.7h-18.6c-1.1,0-1.9-0.8-1.9-1.9v-7.5c0-1.1,0.8-1.9,1.9-1.9h49.4
						c1.1,0,1.9,0.8,1.9,1.9v7.5c0,1.1-0.8,1.9-1.9,1.9h-18.6v54.4c0,1.1-0.8,1.9-1.9,1.9H315.1z M172.8,63.8L163.1,36l-9.8,27.8
						H172.8z M194.4,88.8c0.4,1.1-0.3,2.2-1.4,2.2h-8.8c-1.3,0-2-0.6-2.5-1.8l-5-14.3h-27.4l-5,14.3c-0.4,1.2-1.2,1.8-2.5,1.8h-8.3
						c-1.1,0-1.9-1.1-1.4-2.2l23-63.6c0.4-1.2,1.2-1.7,2.5-1.7h11.4c1.3,0,2.1,0.5,2.5,1.7L194.4,88.8z M260.3,81.9
						c5.4,0,9.1-2.6,12-7.1l-13.7-14.7c-5.3,3-8.7,5.9-8.7,11.8C250,77.7,254.7,81.9,260.3,81.9z M264.1,32.5c-4.4,0-7,2.8-7,6.5
						c0,2.9,1.5,5.4,5,9.1c6-3.5,8.6-5.6,8.6-9.3C270.8,35.3,268.5,32.5,264.1,32.5z M301.7,88.6c1.1,1.2,0.4,2.4-0.9,2.4H290
						c-1.4,0-2.2-0.3-3.1-1.4l-6.4-7.1c-4.3,5.7-10.3,10-20.4,10c-12.4,0-22.1-7.4-22.1-20.2c0-9.8,5.3-15,13.2-19.4
						c-3.9-4.5-5.7-9.2-5.7-13.3c0-10.5,7.4-17.6,18.5-17.6c11.4,0,18.3,6.7,18.3,16.5c0,8.4-6.1,13.2-12.6,16.7l9.5,10.2l5.3-9.3
						c0.7-1.1,1.4-1.5,2.8-1.5h8.2c1.4,0,2.1,0.9,1.3,2.4l-9.5,16.2L301.7,88.6z M217.1,91c1.1,0,1.9-0.8,1.9-1.9V34.7h18.6
						c1.1,0,1.9-0.8,1.9-1.9v-7.5c0-1.1-0.8-1.9-1.9-1.9h-49.4c-1.1,0-1.9,0.8-1.9,1.9v7.5c0,1.1,0.8,1.9,1.9,1.9h18.6v54.4
						c0,1.1,0.8,1.9,1.9,1.9H217.1z"/>
				</defs>
				<clipPath id="SVGID_6_">
					<use xlink:href="#SVGID_5_"  style="overflow:visible;"/>
				</clipPath>
				<g class="st2">
					<defs>
						<rect id="SVGID_7_" y="0.5" width="346" height="113"/>
					</defs>
					<clipPath id="SVGID_8_">
						<use xlink:href="#SVGID_7_"  style="overflow:visible;"/>
					</clipPath>
					<rect x="129.5" y="19.5" class="st3" width="219" height="75.5"/>
				</g>
			</g>
			<g class="st1">
				<defs>
					<path id="SVGID_9_" d="M21.9,101.6c9.6,7.4,21.6,11.9,34.6,11.9c14.3,0,27.3-5.3,37.2-14c0.1-0.1,0.1-0.2-0.1-0.1
						c-4.5,3-17.2,9.5-37.2,9.5c-17.4,0-28.4-3.9-34.6-7.3C21.8,101.5,21.8,101.5,21.9,101.6 M60.3,104.5c13.9,0,29.2-3.8,38.3-11.3
						c2.5-2,4.9-4.8,7-8.4c1.2-2.1,2.4-4.6,3.4-7.1c0-0.1,0-0.2-0.1,0C100.5,90.2,75.8,98,50.4,98c-18,0-37.3-5.7-44.8-16.7
						c-0.1-0.1-0.1-0.1-0.1,0.1C12.5,96.3,33.9,104.5,60.3,104.5 M45.1,79.6c-28.9,0-42.6-13.5-45-22.7c0-0.1-0.1-0.1-0.1,0
						c0,3.1,0.3,7.1,0.8,9.7c0.3,1.3,1.3,3.3,2.8,4.9c7,7.3,24.5,17.5,54.7,17.5c41.2,0,50.6-13.7,52.5-18.2c1.4-3.2,2.1-9.1,2.1-14
						c0-1.2,0-2.1-0.1-3.1c0-0.1-0.1-0.2-0.1,0C110.7,65,75.6,79.6,45.1,79.6 M5.4,32.8C3.8,36,2,41.6,1.4,44.5
						c-0.2,1.2-0.1,1.8,0.3,2.7c3.5,7.4,21,19.1,61.9,19.1c24.9,0,44.3-6.1,47.5-17.3c0.6-2.1,0.6-4.2-0.1-7.2
						c-0.8-3.3-2.4-7.1-3.7-9.8c0-0.1-0.1-0.1-0.1,0c0.5,14.7-40.4,24.1-61.1,24.1c-22.4,0-41-8.9-41-20.2c0-1.1,0.2-2.2,0.5-3.3
						C5.6,32.7,5.5,32.7,5.4,32.8 M93.8,14.7c0.2,0.4,0.4,0.8,0.4,1.3c0,6.3-19.2,17.4-49.8,17.4c-22.5,0-26.7-8.3-26.7-13.6
						c0-1.9,0.7-3.8,2.3-5.8c0.1-0.1,0-0.2-0.1-0.1c-2.9,2.5-5.6,5.3-7.9,8.3c-1.1,1.4-1.8,2.7-1.8,3.4c0,11,27.5,19,53.3,19
						c27.4,0,39.7-9,39.7-16.8c0-2.8-1.1-4.5-3.9-7.6C97.4,18,95.7,16.3,93.8,14.7C93.8,14.6,93.7,14.7,93.8,14.7 M85.4,8.5
						c-8.5-5.1-18.3-8-28.9-8c-10.7,0-20.8,3-29.3,8.2c-2.5,1.6-4,2.8-4,4.4c0,4.8,11.1,9.9,30.9,9.9c19.5,0,34.7-5.6,34.7-11
						C88.8,10.7,87.7,9.8,85.4,8.5"/>
				</defs>
				<clipPath id="SVGID_10_">
					<use xlink:href="#SVGID_9_"  style="overflow:visible;"/>
				</clipPath>
				<g class="st4">
					<defs>
						<rect id="SVGID_11_" y="0.5" width="346" height="113"/>
					</defs>
					<clipPath id="SVGID_12_">
						<use xlink:href="#SVGID_11_"  style="overflow:visible;"/>
					</clipPath>
					<rect x="-2.5" y="-2" class="st5" width="118" height="118"/>
				</g>
			</g>
		</g>
	</g>
</g>
</svg>
